# xmcd CD database file
#
# Track frame offsets:
#	150
#	19126
#	36543
#	55325
#	68799
#	84340
#	93794
#	115804
#	130519
#	145042
#	157250
#	175119
#
# Disc length: 2496 seconds
#
# Revision: 0
# Processed by: cddbd v1.5PL3 Copyright (c) Steve Scherf et al.
# Submitted via: CDex 1.51
#
DISCID=9a09be0c
DTITLE=Jimy Hofer Band - Born in Bern
DYEAR=1995
DGENRE=Country
TTITLE0=Rythmus u Blues
TTITLE1=Kentucky
TTITLE2=New Orleans
TTITLE3=Ig wott läbe win ig wott
TTITLE4=Don't take it for granted
TTITLE5=Don't miss with Texas
TTITLE6=Chrüzwäg
TTITLE7=Heart of Steel
TTITLE8=Tief I mir drin
TTITLE9=Bobby Mc Gee
TTITLE10=All right Now
TTITLE11=Z'Träumli
EXTD=YEAR: 1995
EXTT0=
EXTT1=
EXTT2=
EXTT3=
EXTT4=
EXTT5=
EXTT6=
EXTT7=
EXTT8=
EXTT9=
EXTT10=
EXTT11=
PLAYORDER=
